<?xml version="1.0" encoding="utf-8"?>
<!-- Generator: Adobe Illustrator 16.0.0, SVG Export Plug-In . SVG Version: 6.00 Build 0)  -->
<!DOCTYPE svg PUBLIC "-//W3C//DTD SVG 1.1//EN" "http://www.w3.org/Graphics/SVG/1.1/DTD/svg11.dtd">
<svg version="1.1" id="Ebene_1" xmlns="http://www.w3.org/2000/svg" xmlns:xlink="http://www.w3.org/1999/xlink" x="0px" y="0px"
	 width="693px" height="227px" viewBox="0 0 693 227" enable-background="new 0 0 693 227" xml:space="preserve">
<g>
	<rect x="229.5" y="-2.5" fill="#FFFFFF" width="463.5" height="232"/>
</g>
<g>
	<rect x="-2.5" y="-2.5" fill="#165E8E" width="232" height="232"/>
	<g>
		<polygon fill="none" stroke="#FFFFFF" stroke-width="8" stroke-miterlimit="10" points="108.711,177.75 83.532,177.75 
			118.289,49.25 143.468,49.25 		"/>
	</g>
</g>
<g>
	<path fill="#165E8E" d="M343.557,130.241l-21.329-8.5c-8.346-3.401-14.272-7.546-17.774-12.441
		c-3.504-4.894-5.256-11.308-5.256-19.244c0-11.952,3.039-20.016,9.12-24.189c6.078-4.173,16.897-6.26,32.458-6.26
		c14.938,0,27.304,1.599,37.095,4.791l-1.854,19.012c-18.238-0.31-30.089-0.464-35.549-0.464c-4.946,0-8.27,0.413-9.97,1.237
		c-1.7,0.826-2.551,2.628-2.551,5.41c0,2.372,0.719,4.2,2.164,5.486c1.442,1.291,4.12,2.604,8.037,3.941l19.63,7.574
		c8.552,3.4,14.579,7.573,18.084,12.521c3.501,4.944,5.254,11.437,5.254,19.474c0,12.056-3.013,20.352-9.041,24.884
		c-6.028,4.535-16.926,6.801-32.689,6.801c-13.602,0-26.639-1.546-39.105-4.637l1.7-20.556c21.121,0.516,33.541,0.771,37.25,0.771
		c5.151,0,8.578-0.436,10.278-1.312c1.7-0.874,2.551-2.653,2.551-5.333c0-2.474-0.595-4.274-1.778-5.41
		C349.094,132.665,346.854,131.479,343.557,130.241z"/>
	<path fill="#165E8E" d="M421.918,60.071v81.455c0,4.431,2.729,6.646,8.191,6.646h5.564l3.246,18.546
		c-4.123,2.37-11.027,3.556-20.712,3.556c-7.523,0-13.448-1.882-17.775-5.641c-4.327-3.76-6.49-8.989-6.49-15.688V60.071H421.918z"
		/>
	<path fill="#165E8E" d="M524.547,91.447v76.819h-22.258l-2.318-10.975c-10.306,8.759-20.712,13.138-31.223,13.138
		c-14.836,0-22.257-7.161-22.257-21.484V91.447h28.131v48.688c0,2.371,0.514,4.071,1.546,5.101c1.028,1.031,2.783,1.546,5.255,1.546
		c4.019,0,8.965-1.288,14.839-3.865V91.447H524.547z"/>
	<path fill="#165E8E" d="M621.455,102.576l-8.811,1.235c0.928,2.991,1.392,6.287,1.392,9.892c0,8.966-2.81,15.279-8.425,18.935
		c-5.615,3.658-15.432,5.487-29.442,5.487c-4.946,0-9.069-0.206-12.364-0.619c-1.137,1.34-1.341,2.938-0.62,4.791
		c0.72,1.855,2.42,2.938,5.101,3.247l27.977,2.473c8.346,0.722,14.348,2.963,18.006,6.723c3.657,3.763,5.488,9.352,5.488,16.771
		c0,10.2-3.119,17.001-9.352,20.401c-6.236,3.4-17.338,5.1-33.309,5.1c-11.438,0-20.224-0.772-26.352-2.317
		c-6.133-1.547-10.333-3.84-12.599-6.878c-2.268-3.04-3.399-7.446-3.399-13.217c0-3.916,0.899-7.133,2.705-9.659
		c1.801-2.523,4.92-4.766,9.351-6.724c-3.504-3.605-4.818-7.906-3.942-12.905c0.876-4.997,3.375-8.579,7.498-10.742
		c-8.246-3.502-12.366-10.405-12.366-20.711c0-8.965,2.86-15.303,8.578-19.012c5.719-3.709,15.635-5.564,29.755-5.564
		c8.551,0,15.609,0.722,21.174,2.164h25.348L621.455,102.576z M581.114,165.328l-16.229-1.391c-2.473,1.854-3.71,4.07-3.71,6.646
		c0,2.781,1.005,4.583,3.015,5.409c2.009,0.823,6.207,1.236,12.598,1.236c6.695,0,11.129-0.387,13.292-1.158
		c2.164-0.773,3.245-2.397,3.245-4.869c0-2.165-0.826-3.58-2.473-4.252C589.201,166.282,585.955,165.741,581.114,165.328z
		 M576.169,121.896c4.532,0,7.624-0.564,9.272-1.699c1.647-1.133,2.475-3.298,2.475-6.494c0-3.192-0.827-5.331-2.475-6.414
		c-1.648-1.082-4.74-1.622-9.272-1.622c-4.638,0-7.806,0.541-9.506,1.622c-1.701,1.083-2.551,3.222-2.551,6.414
		c0,3.196,0.85,5.361,2.551,6.494C568.363,121.332,571.531,121.896,576.169,121.896z"/>
</g>
</svg>
